<?xml version="1.0" encoding="UTF-8" standalone="no"?>
<svg
   width="24"
   height="24"
   viewBox="0 0 24 24"
   version="1.1"
   id="svg2"
   xmlns="http://www.w3.org/2000/svg"
   xmlns:svg="http://www.w3.org/2000/svg">
  <defs
     id="defs2" />
  <g
     id="g7">
    <path
       id="path1"
       style="display:inline;stroke-width:0.901951"
       d="m 12.2135,-9.7655e-4 a 2,2 0 0 0 -2,2.00000005 2,2 0 0 0 2,2 2,2 0 0 0 2,-2 2,2 0 0 0 -2,-2.00000005 z M 4.8072501,4.0009766 A 0.80606237,0.80606237 0 0 0 4.0006095,4.8076172 V 5.194336 a 0.80606237,0.80606237 0 0 0 0.8066406,0.8066406 h 4.0839844 l 0.90625,2.7011718 -0.796875,3.2988286 v 7.576171 a 0.42328614,0.42328614 0 0 0 0.4238281,0.423829 h 1.1523434 a 0.47357163,0.47357163 0 0 0 0.470703,-0.419922 L 11.901,12.000977 h 0.625 l 0.130859,1.169921 c 0.18557,-0.140221 0.414713,-0.224609 0.66211,-0.224609 h 1.892578 V 11.112305 L 14.629516,8.7021484 15.535766,6.0009766 H 19.61975 A 0.80606237,0.80606237 0 0 0 20.426391,5.194336 V 4.8076172 A 0.80606237,0.80606237 0 0 0 19.61975,4.0009766 h -6.619141 -1.574218 z m 8.5117189,9.9472654 c -0.0654,0 -0.105469,0.04007 -0.105469,0.105469 v 1.787109 c 0,0.0654 0.04007,0.105469 0.105469,0.105469 h 2.107422 v -1.998047 z m -0.238281,2.972656 0.298828,2.660157 a 0.47357163,0.47357163 0 0 0 0.470703,0.419922 h 1.152344 a 0.42328614,0.42328614 0 0 0 0.423828,-0.423829 v -0.08789 C 15.29234,19.306133 15.211547,19.082141 15.211547,18.84082 v -1.892578 h -1.892578 c -0.08188,0 -0.161192,-0.01 -0.238281,-0.02734 z"
       transform="translate(-0.2135001,2.0517578)" />
    <path
       style="color:#000000;display:inline;fill:#000000;stroke:none;stroke-width:1;stroke-linejoin:round;stroke-dasharray:none;paint-order:stroke markers fill"
       d="M 19,16.405137 V 18 H 17.405137 A 0.40513734,0.40513734 135 0 0 17,18.405137 v 1.189726 A 0.40513734,0.40513734 45 0 0 17.405137,20 H 19 v 1.594863 A 0.40513734,0.40513734 45 0 0 19.405137,22 h 1.189726 A 0.40513734,0.40513734 135 0 0 21,21.594863 V 20 h 1.594863 A 0.40513734,0.40513734 135 0 0 23,19.594863 V 18.405137 A 0.40513734,0.40513734 45 0 0 22.594863,18 H 21 V 16.405137 A 0.40513734,0.40513734 45 0 0 20.594863,16 H 19.405137 A 0.40513734,0.40513734 135 0 0 19,16.405137 Z"
       id="path6"
       transform="matrix(1.5,0,0,1.5,-13.000976,-11.500976)" />
  </g>
</svg>
