<?xml version="1.0" encoding="UTF-8" standalone="no"?>
<!-- Created with Inkscape (http://www.inkscape.org/) -->

<svg
   width="140mm"
   height="140mm"
   viewBox="0 0 140 140"
   version="1.1"
   id="svg1"
   xml:space="preserve"
   inkscape:version="1.3.2 (091e20e, 2023-11-25)"
   sodipodi:docname="logo-flattened.svg"
   inkscape:export-filename="../../Icon.png"
   inkscape:export-xdpi="108.83035"
   inkscape:export-ydpi="108.83035"
   xmlns:inkscape="http://www.inkscape.org/namespaces/inkscape"
   xmlns:sodipodi="http://sodipodi.sourceforge.net/DTD/sodipodi-0.dtd"
   xmlns="http://www.w3.org/2000/svg"
   xmlns:svg="http://www.w3.org/2000/svg"><sodipodi:namedview
     id="namedview1"
     pagecolor="#ffffff"
     bordercolor="#000000"
     borderopacity="0.25"
     inkscape:showpageshadow="2"
     inkscape:pageopacity="0.0"
     inkscape:pagecheckerboard="0"
     inkscape:deskcolor="#d1d1d1"
     inkscape:document-units="mm"
     inkscape:zoom="1.4468942"
     inkscape:cx="299.95283"
     inkscape:cy="267.12389"
     inkscape:window-width="2560"
     inkscape:window-height="1302"
     inkscape:window-x="0"
     inkscape:window-y="1145"
     inkscape:window-maximized="1"
     inkscape:current-layer="svg1"
     showgrid="false"><inkscape:grid
       id="grid1"
       units="mm"
       originx="0"
       originy="0"
       spacingx="0.99999999"
       spacingy="0.99999999"
       empcolor="#0099e5"
       empopacity="0.30196078"
       color="#0099e5"
       opacity="0.14901961"
       empspacing="5"
       dotted="false"
       gridanglex="30"
       gridanglez="30"
       visible="false" /></sodipodi:namedview><defs
     id="defs1"><inkscape:path-effect
       effect="fill_between_many"
       method="originald"
       linkedpaths="#path2,0,1"
       id="path-effect2"
       is_visible="true"
       lpeversion="0"
       join="true"
       close="true"
       autoreverse="true" /></defs><path
     id="path1"
     style="display:inline;opacity:1;fill:#29144b;stroke-width:0.503854;stroke-linecap:round;stroke-linejoin:round;paint-order:stroke markers fill"
     d="M 58.795894 11.455115 A 59.748074 59.748074 0 0 0 13.678752 50.468237 L 58.795894 50.468237 L 58.795894 11.455115 z "
     inkscape:label="Circle Slice (top)" /><path
     id="rect6"
     style="display:inline;opacity:1;fill:#ffd6a1;fill-opacity:1;stroke:none;stroke-width:0.162736;stroke-linecap:round;stroke-linejoin:round;stroke-opacity:1;paint-order:stroke markers fill"
     inkscape:label="Back Rectangle"
     d="m 13.534574,50.468237 c -2.11763,6.122421 -3.283028,12.689103 -3.283003,19.531625 0,0.15719 0.01067,0.3118 0.01188,0.468705 h 48.532438 v -20.00033 z" /><path
     id="path2"
     style="display:inline;fill:#fee9cd;fill-opacity:1;stroke:none;stroke-width:0.529167;stroke-linecap:round;stroke-linejoin:round;stroke-opacity:1;paint-order:stroke markers fill"
     inkscape:label="Triangle"
     d="M 40.251572 99.999863 L 92.635971 138.4864 L 92.635971 99.999863 L 40.251572 99.999863 z "
     transform="translate(-30.000001,-30.000001)" /><path
     id="rect3"
     style="display:inline;opacity:1;fill:#ffaf7f;stroke-width:0.578984;stroke-linecap:round;stroke-linejoin:round;paint-order:stroke markers fill"
     d="m 69.999862,10.251571 c -0.981097,-4e-6 -1.955374,0.02766 -2.924886,0.07441 -0.741181,0.03687 -1.476476,0.0962 -2.210201,0.160197 -0.194161,0.01654 -0.390318,0.02605 -0.583944,0.04444 -0.919867,0.08928 -1.834055,0.198545 -2.741435,0.328662 -0.92124,0.132106 -1.835795,0.284532 -2.743502,0.45682 V 117.2006 H 72.796073 V 10.322367 c -0.927205,-0.04274 -1.858443,-0.07079 -2.796211,-0.0708 z"
     inkscape:label="Wall 4" /><path
     id="rect5"
     style="display:inline;opacity:1;fill:#d56b3c;stroke-width:0.659906;stroke-linecap:round;stroke-linejoin:round;paint-order:stroke markers fill"
     inkscape:label="Wall 3"
     d="M 72.457076 10.314099 L 72.457076 115.70198 L 87.852519 127.01292 C 88.053533 126.95003 88.257031 126.89287 88.457133 126.82792 L 88.457133 13.171806 C 83.386472 11.525889 78.021058 10.539478 72.457076 10.314099 z " /><path
     id="rect5-8"
     style="display:inline;opacity:1;fill:#7c3531;stroke-width:0.751848;stroke-linecap:round;stroke-linejoin:round;paint-order:stroke markers fill"
     inkscape:label="Wall 2"
     d="M 88.029252 13.026595 L 88.029252 126.97313 C 95.419995 124.63638 102.19149 120.90663 108.02906 116.08387 L 108.02906 23.91637 C 102.19148 19.093566 95.420032 15.363371 88.029252 13.026595 z " /><path
     id="rect5-8-6"
     style="display:inline;opacity:1;fill:#5d2824;stroke-width:0.858768;stroke-linecap:round;stroke-linejoin:round;paint-order:stroke markers fill"
     d="M 107.71177 23.665222 L 107.71177 116.33502 C 121.15628 105.37931 129.74754 88.695113 129.74764 69.999862 C 129.7477 51.304508 121.15629 34.621043 107.71177 23.665222 z "
     inkscape:label="Wall 1" /><path
     id="path93"
     style="display:inline;opacity:1;fill:#29144b;fill-opacity:1;stroke:none;stroke-width:0.529167;stroke-linecap:round;stroke-linejoin:round;stroke-opacity:1;paint-order:stroke markers fill"
     d="M 10.251571 69.999862 C 10.251739 102.99775 37.001978 129.74776 69.999862 129.74764 C 76.225337 129.7476 82.227578 128.79297 87.870605 127.02635 L 10.252087 69.999862 L 10.251571 69.999862 z "
     inkscape:label="Circle Slice (bottom)" /></svg>
