<?xml version="1.0" encoding="UTF-8" standalone="no"?>
<svg
   width="24"
   height="24"
   viewBox="0 0 24 24"
   version="1.1"
   id="svg2"
   xmlns="http://www.w3.org/2000/svg"
   xmlns:svg="http://www.w3.org/2000/svg">
  <defs
     id="defs2" />
  <g
     id="layer1"
     style="display:none">
    <path
       d="M 3.7403723,3.5228259 20.259628,20.477174"
       style="display:inline;fill:#c14e25;stroke:#000000;stroke-width:1;stroke-linecap:round;stroke-linejoin:round;stroke-dasharray:none;stroke-opacity:1;paint-order:stroke markers fill"
       id="path1" />
    <path
       style="fill:#ffffff;fill-opacity:1;stroke:#ffffff;stroke-width:2;stroke-linecap:round;stroke-linejoin:round;stroke-dasharray:none;stroke-opacity:1;paint-order:stroke markers fill"
       d="M 14.841509,2 5.0760861,22"
       id="path3-1" />
    <path
       style="fill:#c14e25;stroke:#000000;stroke-width:1;stroke-linecap:round;stroke-linejoin:round;stroke-dasharray:none;stroke-opacity:1;paint-order:stroke markers fill"
       d="M 14.841509,2 5.0760862,22"
       id="path3" />
    <rect
       style="fill:#ffffff;fill-opacity:1;stroke:#010101;stroke-width:2;stroke-linecap:round;stroke-linejoin:round;stroke-dasharray:none;stroke-opacity:1;paint-order:stroke markers fill"
       id="rect10"
       width="2.0787783"
       height="2.0787783"
       x="2"
       y="2" />
    <rect
       style="display:inline;fill:#ffffff;fill-opacity:1;stroke:#010101;stroke-width:2;stroke-linecap:round;stroke-linejoin:round;stroke-dasharray:none;stroke-opacity:1;paint-order:stroke markers fill"
       id="rect10-7"
       width="2.0787783"
       height="2.0787783"
       x="19.921221"
       y="19.921221" />
  </g>
  <g
     id="g7"
     style="display:inline">
    <path
       d="M 5.0683594,4.171875 C 5.0334058,4.5406697 4.8021115,4.8519753 4.4765625,4.9941406 L 9.6660156,10.320313 10.130859,9.3671875 Z m 6.5468746,6.716797 -0.466796,0.953125 7.783203,7.986328 c 0.03495,-0.368794 0.266248,-0.6801 0.591796,-0.822266 z"
       style="stroke-linecap:round;stroke-linejoin:round;paint-order:stroke markers fill"
       id="path26" />
    <path
       d="m 14.806641,1.5019531 c -0.177965,0.01256 -0.335755,0.1189935 -0.414063,0.2792969 l -9.7656249,20 c -0.1206029,0.248109 -0.017471,0.547018 0.2304688,0.667969 0.248109,0.120603 0.5470176,0.01747 0.6679687,-0.230469 l 9.7656254,-20 c 0.120603,-0.248109 0.01747,-0.5470176 -0.230469,-0.6679688 -0.07889,-0.038256 -0.166454,-0.055095 -0.253906,-0.048828 z"
       style="stroke-linecap:round;stroke-linejoin:round;paint-order:stroke markers fill"
       id="path24" />
    <path
       d="M 2,1 C 1.4477387,1.0000552 1.0000552,1.4477387 1,2 v 2.078125 c 5.52e-5,0.5522613 0.4477387,0.9999448 1,1 h 2.078125 c 0.5522613,-5.52e-5 0.9999448,-0.4477387 1,-1 V 2 c -5.52e-5,-0.5522613 -0.4477387,-0.9999448 -1,-1 z M 2,2 H 4.078125 V 4.078125 H 2 Z"
       style="fill:#010101;stroke-linecap:round;stroke-linejoin:round;paint-order:stroke markers fill"
       id="path23" />
    <path
       d="m 19.921875,18.921875 c -0.552261,5.5e-5 -0.999945,0.447739 -1,1 V 22 c 5.5e-5,0.552261 0.447739,0.999945 1,1 H 22 c 0.552261,-5.5e-5 0.999945,-0.447739 1,-1 v -2.078125 c -5.5e-5,-0.552261 -0.447739,-0.999945 -1,-1 z m 0,1 H 22 V 22 h -2.078125 z"
       style="fill:#010101;stroke-linecap:round;stroke-linejoin:round;paint-order:stroke markers fill"
       id="path21" />
  </g>
</svg>
