<?xml version="1.0" encoding="UTF-8" standalone="no"?>
<svg
   width="24"
   height="24"
   viewBox="0 0 24 24"
   version="1.1"
   id="svg2"
   sodipodi:docname="icon-sector-add.svg"
   inkscape:version="1.3.2 (091e20e, 2023-11-25)"
   xmlns:inkscape="http://www.inkscape.org/namespaces/inkscape"
   xmlns:sodipodi="http://sodipodi.sourceforge.net/DTD/sodipodi-0.dtd"
   xmlns="http://www.w3.org/2000/svg"
   xmlns:svg="http://www.w3.org/2000/svg">
  <defs
     id="defs2">
    <inkscape:path-effect
       effect="fillet_chamfer"
       id="path-effect7"
       is_visible="true"
       lpeversion="1"
       nodesatellites_param="F,0,0,1,0,0,0,1 @ F,0,0,1,0,0,0,1 @ F,0,0,1,0,0.42328614,0,1 @ F,0,1,1,0,0.42328614,0,1"
       radius="0"
       unit="px"
       method="auto"
       mode="F"
       chamfer_steps="1"
       flexible="false"
       use_knot_distance="true"
       apply_no_radius="true"
       apply_with_radius="true"
       only_selected="false"
       hide_knots="false" />
    <inkscape:path-effect
       effect="fillet_chamfer"
       id="path-effect6"
       is_visible="true"
       lpeversion="1"
       nodesatellites_param="F,0,1,1,0,0.80606237,0,1 @ F,0,0,1,0,0,0,1 @ F,0,0,1,0,0,0,1 @ F,0,0,1,0,0.80606237,0,1"
       radius="0"
       unit="px"
       method="auto"
       mode="F"
       chamfer_steps="1"
       flexible="false"
       use_knot_distance="true"
       apply_no_radius="true"
       apply_with_radius="true"
       only_selected="false"
       hide_knots="false" />
    <inkscape:path-effect
       effect="fillet_chamfer"
       id="path-effect3"
       is_visible="true"
       lpeversion="1"
       nodesatellites_param="F,0,1,1,0,0.40513734,0,1 @ F,0,0,1,0,0,0,1 @ F,0,1,1,0,0.40513734,0,1 @ F,0,1,1,0,0.40513734,0,1 @ F,0,0,1,0,0,0,1 @ F,0,0,1,0,0.40513734,0,1 @ F,0,1,1,0,0.40513734,0,1 @ F,0,0,1,0,0,0,1 @ F,0,1,1,0,0.40513734,0,1 @ F,0,1,1,0,0.40513734,0,1 @ F,0,0,1,0,0,0,1 @ F,0,1,1,0,0.40513734,0,1"
       radius="0"
       unit="px"
       method="auto"
       mode="F"
       chamfer_steps="1"
       flexible="false"
       use_knot_distance="true"
       apply_no_radius="true"
       apply_with_radius="true"
       only_selected="false"
       hide_knots="false" />
  </defs>
  <sodipodi:namedview
     id="namedview2"
     pagecolor="#ffffff"
     bordercolor="#000000"
     borderopacity="0.25"
     inkscape:showpageshadow="2"
     inkscape:pageopacity="0.0"
     inkscape:pagecheckerboard="0"
     inkscape:deskcolor="#d1d1d1"
     inkscape:zoom="20.685228"
     inkscape:cx="14.623963"
     inkscape:cy="13.318683"
     inkscape:window-width="2560"
     inkscape:window-height="1302"
     inkscape:window-x="0"
     inkscape:window-y="25"
     inkscape:window-maximized="1"
     inkscape:current-layer="svg2"
     showguides="true"
     inkscape:lockguides="false">
    <sodipodi:guide
       position="2,24"
       orientation="-1,0"
       id="guide2"
       inkscape:locked="false"
       inkscape:label=""
       inkscape:color="rgb(0,134,229)" />
    <sodipodi:guide
       position="22,24"
       orientation="-1,0"
       id="guide3"
       inkscape:locked="false"
       inkscape:label=""
       inkscape:color="rgb(0,134,229)" />
  </sodipodi:namedview>
  <path
     fill="none"
     d="M0 0h24v24H0V0z"
     id="path2" />
  <path
     id="rect3"
     style="fill:#000000;stroke-width:1.3781"
     d="M 19,16.405137 V 18 H 17.405137 A 0.40513734,0.40513734 135 0 0 17,18.405137 v 1.189726 A 0.40513734,0.40513734 45 0 0 17.405137,20 H 19 v 1.594863 A 0.40513734,0.40513734 45 0 0 19.405137,22 h 1.189726 A 0.40513734,0.40513734 135 0 0 21,21.594863 V 20 h 1.594863 A 0.40513734,0.40513734 135 0 0 23,19.594863 V 18.405137 A 0.40513734,0.40513734 45 0 0 22.594863,18 H 21 V 16.405137 A 0.40513734,0.40513734 45 0 0 20.594863,16 H 19.405137 A 0.40513734,0.40513734 135 0 0 19,16.405137 Z"
     inkscape:path-effect="#path-effect3"
     inkscape:original-d="M 19 16 L 19 18 L 17 18 L 17 20 L 19 20 L 19 22 L 21 22 L 21 20 L 23 20 L 23 18 L 21 18 L 21 16 L 19 16 z " />
  <path
     style="color:#000000;fill:#000000;stroke-linejoin:round;-inkscape-stroke:none"
     d="M 8.1640625,2.2265625 A 0.50005,0.50005 0 0 0 7.5917969,2.4570313 L 4.1113281,8.5 a 0.50005,0.50005 0 0 0 -0.0625,0.3222656 l 0.5800781,4.0117184 a 0.50005,0.50005 0 0 0 0.2011719,0.333985 L 13,19.113281 a 0.50005,0.50005 0 0 0 0.705078,-0.117187 l 5.509766,-7.88086 a 0.50005,0.50005 0 0 0 0.07422,-0.412109 L 17.888672,5.2890625 A 0.50005,0.50005 0 0 0 17.542969,4.9335937 Z m 0.099609,1.0703125 8.7265621,2.5195312 1.273438,4.9140628 -5.087891,7.27539 L 5.5898437,12.482422 5.0644531,8.8515625 Z"
     id="path1" />
  <path
     style="color:#000000;fill:#000000;stroke-linejoin:round;stroke-dasharray:0.8, 0.8;-inkscape-stroke:none"
     d="M 4.3027344,8.6425781 4.2050781,9.4375 4.9980469,9.5351563 5.0976562,8.7421875 Z M 5.890625,8.8417969 5.7929687,9.6347656 6.5859375,9.734375 6.6855469,8.9394531 Z m 1.5878906,0.1972656 -0.097656,0.7929688 0.7929687,0.099609 0.099609,-0.7929687 z M 9.0664063,9.2363281 8.96875,10.03125 l 0.7929688,0.09766 0.099609,-0.7929685 z m 1.5878907,0.1972657 -0.09766,0.7949222 0.792968,0.09961 0.09961,-0.7949219 z m 1.587891,0.1992187 -0.09961,0.7929685 0.794922,0.09961 0.09961,-0.7949222 z m 1.58789,0.1972656 -0.09961,0.7929689 0.794922,0.09961 0.09766,-0.7929685 z m 1.587891,0.1972659 -0.09961,0.794922 0.794922,0.09766 0.09766,-0.792969 z m 1.58789,0.199219 -0.09961,0.792968 0.794922,0.09961 0.09766,-0.794922 z m 1.587891,0.197265 -0.09961,0.792969 0.06836,0.0098 0.09961,-0.794922 z"
     id="path3" />
</svg>
