<?xml version="1.0" encoding="UTF-8" standalone="no"?>
<svg
   width="24"
   height="24"
   viewBox="0 0 24 24"
   version="1.1"
   id="svg2"
   sodipodi:docname="icon-entity-add.svg"
   inkscape:version="1.3.2 (091e20e, 2023-11-25)"
   xmlns:inkscape="http://www.inkscape.org/namespaces/inkscape"
   xmlns:sodipodi="http://sodipodi.sourceforge.net/DTD/sodipodi-0.dtd"
   xmlns="http://www.w3.org/2000/svg"
   xmlns:svg="http://www.w3.org/2000/svg">
  <defs
     id="defs2">
    <inkscape:path-effect
       effect="fillet_chamfer"
       id="path-effect7"
       is_visible="true"
       lpeversion="1"
       nodesatellites_param="F,0,0,1,0,0,0,1 @ F,0,0,1,0,0,0,1 @ F,0,0,1,0,0.42328614,0,1 @ F,0,1,1,0,0.42328614,0,1"
       radius="0"
       unit="px"
       method="auto"
       mode="F"
       chamfer_steps="1"
       flexible="false"
       use_knot_distance="true"
       apply_no_radius="true"
       apply_with_radius="true"
       only_selected="false"
       hide_knots="false" />
    <inkscape:path-effect
       effect="fillet_chamfer"
       id="path-effect6"
       is_visible="true"
       lpeversion="1"
       nodesatellites_param="F,0,1,1,0,0.80606237,0,1 @ F,0,0,1,0,0,0,1 @ F,0,0,1,0,0,0,1 @ F,0,0,1,0,0.80606237,0,1"
       radius="0"
       unit="px"
       method="auto"
       mode="F"
       chamfer_steps="1"
       flexible="false"
       use_knot_distance="true"
       apply_no_radius="true"
       apply_with_radius="true"
       only_selected="false"
       hide_knots="false" />
    <inkscape:path-effect
       effect="fillet_chamfer"
       id="path-effect3"
       is_visible="true"
       lpeversion="1"
       nodesatellites_param="F,0,1,1,0,0.40513734,0,1 @ F,0,0,1,0,0,0,1 @ F,0,1,1,0,0.40513734,0,1 @ F,0,1,1,0,0.40513734,0,1 @ F,0,0,1,0,0,0,1 @ F,0,0,1,0,0.40513734,0,1 @ F,0,1,1,0,0.40513734,0,1 @ F,0,0,1,0,0,0,1 @ F,0,1,1,0,0.40513734,0,1 @ F,0,1,1,0,0.40513734,0,1 @ F,0,0,1,0,0,0,1 @ F,0,1,1,0,0.40513734,0,1"
       radius="0"
       unit="px"
       method="auto"
       mode="F"
       chamfer_steps="1"
       flexible="false"
       use_knot_distance="true"
       apply_no_radius="true"
       apply_with_radius="true"
       only_selected="false"
       hide_knots="false" />
  </defs>
  <sodipodi:namedview
     id="namedview2"
     pagecolor="#ffffff"
     bordercolor="#000000"
     borderopacity="0.25"
     inkscape:showpageshadow="2"
     inkscape:pageopacity="0.0"
     inkscape:pagecheckerboard="0"
     inkscape:deskcolor="#d1d1d1"
     inkscape:zoom="3.4149007"
     inkscape:cx="14.641714"
     inkscape:cy="13.32396"
     inkscape:window-width="2560"
     inkscape:window-height="1302"
     inkscape:window-x="0"
     inkscape:window-y="25"
     inkscape:window-maximized="1"
     inkscape:current-layer="svg2"
     showguides="true"
     inkscape:lockguides="false">
    <sodipodi:guide
       position="2,24"
       orientation="-1,0"
       id="guide2"
       inkscape:locked="false"
       inkscape:label=""
       inkscape:color="rgb(0,134,229)" />
    <sodipodi:guide
       position="22,24"
       orientation="-1,0"
       id="guide3"
       inkscape:locked="false"
       inkscape:label=""
       inkscape:color="rgb(0,134,229)" />
  </sodipodi:namedview>
  <path
     fill="none"
     d="M0 0h24v24H0V0z"
     id="path2" />
  <path
     id="rect3"
     style="fill:#000000;stroke-width:1.3781"
     d="M 19,16.405137 V 18 H 17.405137 A 0.40513734,0.40513734 135 0 0 17,18.405137 v 1.189726 A 0.40513734,0.40513734 45 0 0 17.405137,20 H 19 v 1.594863 A 0.40513734,0.40513734 45 0 0 19.405137,22 h 1.189726 A 0.40513734,0.40513734 135 0 0 21,21.594863 V 20 h 1.594863 A 0.40513734,0.40513734 135 0 0 23,19.594863 V 18.405137 A 0.40513734,0.40513734 45 0 0 22.594863,18 H 21 V 16.405137 A 0.40513734,0.40513734 45 0 0 20.594863,16 H 19.405137 A 0.40513734,0.40513734 135 0 0 19,16.405137 Z"
     inkscape:path-effect="#path-effect3"
     inkscape:original-d="M 19 16 L 19 18 L 17 18 L 17 20 L 19 20 L 19 22 L 21 22 L 21 20 L 23 20 L 23 18 L 21 18 L 21 16 L 19 16 z " />
  <g
     id="g7"
     transform="translate(-0.2135001,2)">
    <path
       id="rect4"
       style="stroke-width:0.901951"
       d="M 4.8066408,4.0000002 A 0.80606237,0.80606237 0 0 0 4.0000002,4.8066408 v 0.3867188 a 0.80606237,0.80606237 0 0 0 0.8066406,0.8066406 h 4.0839844 l 0.90625,2.7011719 -0.796875,3.2988289 v 7.576172 a 0.42328614,0.42328614 0 0 0 0.4238281,0.423828 h 1.1523437 a 0.47357163,0.47357163 0 0 0 0.470703,-0.419922 l 0.853516,-7.580078 H 13 V 4.0000002 Z" />
    <path
       id="rect4-6"
       style="stroke-width:0.901951"
       d="M 19.620359,4.0000002 A 0.80606237,0.80606237 0 0 1 20.427,4.8066408 V 5.1933596 A 0.80606237,0.80606237 0 0 1 19.620359,6.0000002 H 15.536375 L 14.630125,8.7011721 15.427,12.000001 v 7.576172 a 0.42328614,0.42328614 0 0 1 -0.423828,0.423828 H 13.850828 A 0.47357163,0.47357163 0 0 1 13.380125,19.580079 L 12.526609,12.000001 H 11.427 V 4.0000002 Z" />
  </g>
  <circle
     style="fill:#000000"
     id="path7"
     cx="12"
     cy="4"
     r="2" />
</svg>
