<?xml version="1.0" encoding="UTF-8" standalone="no"?>
<svg
   width="24"
   height="24"
   viewBox="0 0 24 24"
   version="1.1"
   id="svg2"
   sodipodi:docname="inkscape-icon-split-sector.svg"
   inkscape:version="1.3.2 (091e20e, 2023-11-25)"
   inkscape:export-filename="icon-split-sector.svg"
   inkscape:export-xdpi="96"
   inkscape:export-ydpi="96"
   xmlns:inkscape="http://www.inkscape.org/namespaces/inkscape"
   xmlns:sodipodi="http://sodipodi.sourceforge.net/DTD/sodipodi-0.dtd"
   xmlns="http://www.w3.org/2000/svg"
   xmlns:svg="http://www.w3.org/2000/svg">
  <defs
     id="defs2" />
  <sodipodi:namedview
     id="namedview2"
     pagecolor="#ffffff"
     bordercolor="#000000"
     borderopacity="0.25"
     inkscape:showpageshadow="2"
     inkscape:pageopacity="0.0"
     inkscape:pagecheckerboard="0"
     inkscape:deskcolor="#d1d1d1"
     inkscape:zoom="20.685228"
     inkscape:cx="14.623963"
     inkscape:cy="13.318683"
     inkscape:window-width="1392"
     inkscape:window-height="1212"
     inkscape:window-x="975"
     inkscape:window-y="1199"
     inkscape:window-maximized="0"
     inkscape:current-layer="g7"
     showguides="true"
     inkscape:lockguides="false">
    <sodipodi:guide
       position="2,24"
       orientation="-1,0"
       id="guide2"
       inkscape:locked="false"
       inkscape:label=""
       inkscape:color="rgb(0,134,229)" />
    <sodipodi:guide
       position="22,25.933747"
       orientation="-1,0"
       id="guide3"
       inkscape:locked="false"
       inkscape:label=""
       inkscape:color="rgb(0,134,229)" />
    <sodipodi:guide
       position="-2.2721529,2"
       orientation="0,1"
       id="guide1"
       inkscape:locked="false"
       inkscape:label=""
       inkscape:color="rgb(0,134,229)" />
    <sodipodi:guide
       position="-7.9283632,22"
       orientation="0,1"
       id="guide4"
       inkscape:locked="false"
       inkscape:label=""
       inkscape:color="rgb(0,134,229)" />
  </sodipodi:namedview>
  <g
     inkscape:groupmode="layer"
     id="layer1"
     inkscape:label="Uncombined"
     style="display:none">
    <path
       style="color:#000000;fill:#000000;stroke-linejoin:round;-inkscape-stroke:none"
       d="M 8.6433606,2.9980135 C 8.4222981,2.9339905 8.1860848,3.0291215 8.071095,3.2284823 L 4.5906262,9.271451 c -0.056504,0.097328 -0.078525,0.2108712 -0.0625,0.3222656 l 0.5800781,4.0117184 c 0.019106,0.133962 0.091687,0.254462 0.2011719,0.333985 l 5.5593628,7.008873 c 0.226316,0.165519 0.544471,0.11264 0.705078,-0.117187 l 8.120325,-8.944421 c 0.08383,-0.119898 0.110957,-0.270496 0.07422,-0.412109 L 18.36797,6.0605135 C 18.323734,5.8892109 18.192271,5.7540346 18.022267,5.7050447 Z M 8.7429696,4.068326 17.469532,6.5878572 18.74297,11.50192 11.04452,19.840871 6.0691418,13.253873 5.5437512,9.6230135 Z"
       id="path1"
       sodipodi:nodetypes="cccccccccccccccccccc" />
    <path
       style="fill:#ffffff;fill-opacity:1;stroke:#ffffff;stroke-width:2;stroke-linecap:round;stroke-linejoin:round;stroke-dasharray:none;stroke-opacity:1;paint-order:stroke markers fill"
       d="M 14.841509,2 5.0760861,22"
       id="path3-1" />
    <path
       style="fill:#c14e25;stroke:#000000;stroke-width:1;stroke-linecap:round;stroke-linejoin:round;stroke-dasharray:none;stroke-opacity:1;paint-order:stroke markers fill"
       d="M 14.841509,2 5.0760862,22"
       id="path3" />
  </g>
  <g
     inkscape:groupmode="layer"
     id="g7"
     inkscape:label="Combined"
     style="display:inline">
    <path
       id="path5"
       style="color:#000000;fill:#000000;stroke-linejoin:round;-inkscape-stroke:none"
       d="m 8.4765625,2.9785156 c -0.1650857,0.00909 -0.3200077,0.1004796 -0.40625,0.25 L 4.5898438,9.2714844 c -0.056504,0.097328 -0.078525,0.2108713 -0.0625,0.3222656 l 0.5800781,4.011719 c 0.019106,0.133962 0.091687,0.254461 0.2011719,0.333984 L 6.9121094,15.960938 7.3828125,14.994141 6.0683594,13.253906 5.5429688,9.6230469 8.7421875,4.0683594 12.226562,5.0742188 12.673828,4.1621094 8.6425781,2.9980469 C 8.5873126,2.9820411 8.5315911,2.9754853 8.4765625,2.9785156 Z M 14.625,4.7246094 l -0.447266,0.9140625 3.291016,0.9492187 1.273438,4.9140624 -7.697266,8.339844 -2.3085939,-3.056641 -0.4472656,0.91211 2.5800785,3.251953 c 0.226315,0.165519 0.544471,0.112639 0.705078,-0.117188 l 8.11914,-8.945312 c 0.08383,-0.119898 0.110956,-0.270497 0.07422,-0.41211 L 18.367188,6.0605469 C 18.322952,5.8892444 18.191488,5.754068 18.021484,5.7050781 Z" />
    <path
       style="display:inline;color:#000000;fill:#000000;stroke-linecap:round;stroke-linejoin:round;-inkscape-stroke:none;paint-order:stroke markers fill"
       d="M 15.060547,1.5507812 A 0.5,0.5 0 0 0 14.392578,1.78125 l -9.7656249,20 a 0.5,0.5 0 0 0 0.2304688,0.667969 0.5,0.5 0 0 0 0.6679687,-0.230469 l 9.7656254,-20 A 0.5,0.5 0 0 0 15.060547,1.5507812 Z"
       id="path9" />
  </g>
</svg>
